<svg width="500" height="500" viewBox="0 0 500 500" fill="none" xmlns="http://www.w3.org/2000/svg">
<rect width="500" height="500" rx="99" fill="url(#paint0_linear_110_666)"/>
<path d="M184.789 287.106C184.104 287.792 183.279 288.134 182.313 288.134C181.347 288.134 180.522 287.792 179.837 287.106C179.152 286.421 178.809 285.596 178.809 284.63C178.809 283.665 179.136 282.839 179.79 282.154C180.475 281.469 181.316 281.126 182.313 281.126C183.279 281.126 184.104 281.469 184.789 282.154C185.474 282.839 185.817 283.665 185.817 284.63C185.817 285.596 185.474 286.421 184.789 287.106Z" fill="white"/>
<path d="M195.716 270.661C195.716 271.44 196.136 272.063 196.977 272.53C197.849 272.966 198.893 273.355 200.108 273.698C201.353 274.01 202.599 274.383 203.845 274.819C205.091 275.255 206.134 276.003 206.975 277.062C207.847 278.09 208.283 279.398 208.283 280.986C208.283 283.229 207.411 284.989 205.667 286.265C203.954 287.542 201.789 288.181 199.173 288.181C196.868 288.181 194.891 287.698 193.24 286.733C191.589 285.767 190.39 284.428 189.642 282.715L193.987 280.192C194.797 282.435 196.526 283.556 199.173 283.556C201.821 283.556 203.144 282.684 203.144 280.94C203.144 280.192 202.708 279.585 201.836 279.117C200.995 278.65 199.952 278.261 198.706 277.949C197.491 277.607 196.261 277.218 195.015 276.782C193.769 276.345 192.71 275.629 191.838 274.632C190.997 273.605 190.577 272.312 190.577 270.755C190.577 268.606 191.387 266.877 193.006 265.569C194.657 264.261 196.697 263.607 199.126 263.607C201.057 263.607 202.771 264.043 204.266 264.915C205.792 265.756 206.96 266.939 207.769 268.466L203.518 270.848C202.708 269.073 201.244 268.185 199.126 268.185C198.161 268.185 197.351 268.403 196.697 268.839C196.043 269.244 195.716 269.852 195.716 270.661Z" fill="white"/>
<path d="M227.644 264.214H233.157L224.047 287.574H218.207L209.097 264.214H214.609L221.15 281.967L227.644 264.214Z" fill="white"/>
<path d="M254.034 264.214H258.986V286.499C258.986 290.05 257.818 292.775 255.482 294.675C253.146 296.575 250.312 297.525 246.979 297.525C241.591 297.525 237.9 295.64 235.907 291.872L240.252 289.349C241.466 291.747 243.74 292.946 247.073 292.946C249.253 292.946 250.95 292.37 252.165 291.218C253.411 290.096 254.034 288.524 254.034 286.499V283.649C252.134 286.359 249.424 287.714 245.905 287.714C242.603 287.714 239.816 286.546 237.542 284.21C235.268 281.843 234.131 278.993 234.131 275.66C234.131 272.328 235.268 269.493 237.542 267.157C239.816 264.79 242.603 263.607 245.905 263.607C249.424 263.607 252.134 264.962 254.034 267.671V264.214ZM241.279 280.893C242.712 282.294 244.487 282.995 246.605 282.995C248.723 282.995 250.483 282.294 251.885 280.893C253.317 279.491 254.034 277.747 254.034 275.66C254.034 273.573 253.317 271.829 251.885 270.428C250.483 269.026 248.723 268.325 246.605 268.325C244.487 268.325 242.712 269.026 241.279 270.428C239.878 271.829 239.177 273.573 239.177 275.66C239.177 277.747 239.878 279.491 241.279 280.893Z" fill="white"/>
<path d="M184.789 347.011C184.104 347.697 183.279 348.039 182.313 348.039C181.347 348.039 180.522 347.697 179.837 347.011C179.152 346.326 178.809 345.501 178.809 344.535C178.809 343.57 179.136 342.744 179.79 342.059C180.475 341.374 181.316 341.031 182.313 341.031C183.279 341.031 184.104 341.374 184.789 342.059C185.474 342.744 185.817 343.57 185.817 344.535C185.817 345.501 185.474 346.326 184.789 347.011Z" fill="white"/>
<path d="M214.809 324.119H220.135L212.801 347.479H207.848L202.99 331.734L198.084 347.479H193.132L185.797 324.119H191.123L195.655 340.237L200.56 324.119H205.372L210.231 340.237L214.809 324.119Z" fill="white"/>
<path d="M226.91 337.948C227.283 339.723 228.14 341.094 229.479 342.059C230.819 342.994 232.454 343.461 234.385 343.461C237.063 343.461 239.072 342.495 240.411 340.564L244.57 342.994C242.265 346.389 238.854 348.086 234.338 348.086C230.538 348.086 227.47 346.934 225.134 344.629C222.798 342.293 221.63 339.35 221.63 335.799C221.63 332.311 222.783 329.398 225.088 327.062C227.392 324.695 230.351 323.512 233.964 323.512C237.39 323.512 240.193 324.711 242.374 327.109C244.585 329.507 245.691 332.42 245.691 335.846C245.691 336.375 245.628 337.076 245.504 337.948H226.91ZM226.863 333.837H240.598C240.256 331.937 239.462 330.504 238.216 329.539C237.001 328.573 235.568 328.09 233.918 328.09C232.049 328.09 230.491 328.604 229.246 329.632C228 330.66 227.206 332.061 226.863 333.837Z" fill="white"/>
<path d="M263.352 323.512C266.56 323.512 269.301 324.695 271.575 327.062C273.848 329.43 274.985 332.342 274.985 335.799C274.985 339.225 273.848 342.137 271.575 344.535C269.301 346.902 266.56 348.086 263.352 348.086C259.801 348.086 257.076 346.762 255.176 344.115V347.479H250.131V314.775H255.176V327.436C257.076 324.82 259.801 323.512 263.352 323.512ZM257.279 341.172C258.68 342.573 260.44 343.274 262.558 343.274C264.676 343.274 266.435 342.573 267.837 341.172C269.239 339.739 269.939 337.948 269.939 335.799C269.939 333.65 269.239 331.874 267.837 330.473C266.435 329.04 264.676 328.324 262.558 328.324C260.44 328.324 258.68 329.04 257.279 330.473C255.877 331.874 255.176 333.65 255.176 335.799C255.176 337.948 255.877 339.739 257.279 341.172Z" fill="white"/>
<path d="M292.78 323.512C295.988 323.512 298.728 324.711 301.002 327.109C303.276 329.476 304.413 332.373 304.413 335.799C304.413 339.256 303.276 342.168 301.002 344.535C298.728 346.902 295.988 348.086 292.78 348.086C289.229 348.086 286.504 346.778 284.604 344.162V356.822H279.558V324.119H284.604V327.483C286.504 324.835 289.229 323.512 292.78 323.512ZM286.706 341.172C288.108 342.573 289.867 343.274 291.985 343.274C294.103 343.274 295.863 342.573 297.265 341.172C298.666 339.739 299.367 337.948 299.367 335.799C299.367 333.65 298.666 331.874 297.265 330.473C295.863 329.04 294.103 328.324 291.985 328.324C289.867 328.324 288.108 329.04 286.706 330.473C285.305 331.874 284.604 333.65 284.604 335.799C284.604 337.948 285.305 339.739 286.706 341.172Z" fill="white"/>
<path fill-rule="evenodd" clip-rule="evenodd" d="M162.444 119.956C158.745 121.228 155.88 123.322 154.022 126.114C150.71 131.09 150.922 122.108 151.068 251.431L151.201 369.199L152.548 372.056C154.232 375.63 157.073 378.445 160.743 380.178L163.579 381.517H249.966H336.353L339.234 380.172C342.896 378.463 345.662 375.711 347.38 372.066L348.731 369.199L348.865 278.624L349 188.049L314.306 153.524L279.612 119L222.37 119.017C168.648 119.032 164.961 119.09 162.444 119.956ZM272.254 156.851L272.401 183.924L273.616 186.233C275.271 189.38 278.078 192.209 281.168 193.847L283.747 195.215L310.953 195.36L338.158 195.506V280.736C338.158 357.287 338.075 366.138 337.345 367.671C335.642 371.242 342.117 370.996 250.001 370.996C157.964 370.996 164.011 371.224 162.529 367.695C161.389 364.979 161.388 135.797 162.529 133.08C163.968 129.652 161.056 129.82 219.391 129.798L272.108 129.778L272.254 156.851ZM306.698 161.341L330.16 184.693H308.32H286.481L284.727 182.948L282.974 181.203V159.596C282.974 147.713 283.032 137.989 283.105 137.989C283.177 137.989 293.794 148.498 306.698 161.341Z" fill="white"/>
<defs>
<linearGradient id="paint0_linear_110_666" x1="-138.5" y1="-236" x2="541" y2="831.5" gradientUnits="userSpaceOnUse">
<stop stop-color="#C0D7E9"/>
<stop offset="1" stop-color="#48576F"/>
</linearGradient>
</defs>
</svg>
